<svg version="1.2" baseProfile="tiny-ps" xmlns="http://www.w3.org/2000/svg" viewBox="0 0 1012 569" width="1012" height="569">
	<title>icon-svg</title>
	<style>
		tspan { white-space:pre }
		.shp0 { fill: #ff5c58 } 
	</style>
	<path id="Layer" class="shp0" d="M987.8 76C986.59 72.84 985.07 69.8 983.26 66.94C981.45 64.08 979.36 61.41 977.02 58.96C974.68 56.51 972.11 54.3 969.34 52.36C966.56 50.42 963.6 48.76 960.5 47.4C954.4 44.59 947.79 43.02 941.08 42.79C934.36 42.55 927.67 43.66 921.38 46.04C915.1 48.43 909.35 52.04 904.48 56.67C899.61 61.29 895.7 66.85 893 73L766.9 356.7L709.5 228.1C709.5 228.1 704.9 220 702.6 217.1C701.23 215.24 699.74 213.47 698.15 211.79C696.56 210.12 694.87 208.55 693.08 207.08C691.3 205.61 689.42 204.26 687.47 203.03C685.52 201.79 683.49 200.68 681.4 199.7C680.68 199.38 679.95 199.07 679.21 198.78C678.47 198.49 677.73 198.23 676.97 197.98C676.22 197.72 675.47 197.49 674.7 197.28C673.94 197.07 673.17 196.87 672.4 196.7C671.42 196.41 670.43 196.15 669.43 195.94C668.43 195.72 667.43 195.55 666.41 195.42C665.4 195.28 664.38 195.19 663.36 195.14C662.34 195.08 661.32 195.07 660.3 195.1C657.94 195.17 655.59 195.39 653.26 195.76C650.93 196.13 648.63 196.66 646.37 197.33C644.11 198.01 641.9 198.83 639.75 199.79C637.59 200.76 635.51 201.86 633.5 203.1L632.3 203.8C630.33 205.21 628.46 206.73 626.69 208.38C624.91 210.02 623.25 211.77 621.7 213.63C620.15 215.48 618.71 217.43 617.41 219.47C616.11 221.5 614.94 223.62 613.9 225.8L555.9 355.8C555.9 355.8 515.9 263.8 501.6 233.6C500.57 230.69 499.32 227.87 497.84 225.17C496.36 222.46 494.67 219.88 492.78 217.44C490.89 215.01 488.8 212.73 486.54 210.63C484.29 208.53 481.86 206.61 479.3 204.9C477.08 203.65 474.77 202.57 472.39 201.65C470.01 200.73 467.57 199.99 465.08 199.42C462.6 198.86 460.08 198.47 457.54 198.27C455 198.06 452.44 198.04 449.9 198.2C447.11 198.2 444.33 198.42 441.58 198.88C438.84 199.34 436.13 200.03 433.5 200.94C430.86 201.85 428.31 202.97 425.87 204.31C423.42 205.64 421.09 207.18 418.9 208.9C417.79 209.81 416.72 210.77 415.69 211.78C414.66 212.79 413.68 213.85 412.75 214.94C411.82 216.04 410.94 217.18 410.12 218.36C409.29 219.54 408.52 220.75 407.8 222C406.05 224.57 404.59 227.32 403.44 230.21C402.3 233.09 401.47 236.1 400.98 239.16C400.49 242.23 400.33 245.34 400.52 248.44C400.71 251.54 401.24 254.61 402.1 257.6C412.1 288.5 407.7 320.8 388 354.9C384.32 361.44 380.09 367.65 375.37 373.48C370.64 379.31 365.43 384.73 359.8 389.68C354.17 394.63 348.13 399.11 341.74 403.05C335.36 406.99 328.65 410.38 321.7 413.2C316.18 415.43 310.53 417.31 304.78 418.84C299.03 420.36 293.19 421.52 287.29 422.32C281.4 423.11 275.46 423.53 269.51 423.58C263.56 423.62 257.61 423.3 251.7 422.6C245.79 421.9 251.7 422.6 251.7 422.6C250.2 422.45 248.71 422.27 247.22 422.06C245.72 421.86 244.24 421.64 242.75 421.39C241.27 421.14 239.79 420.86 238.31 420.56C236.84 420.27 235.37 419.94 233.9 419.6C226.88 418.23 219.96 416.36 213.21 413.99C206.46 411.62 199.89 408.77 193.55 405.46C187.21 402.15 181.11 398.38 175.32 394.18C169.52 389.99 164.03 385.38 158.9 380.4C155.66 377.6 152.55 374.65 149.59 371.55C146.62 368.46 143.8 365.23 141.14 361.88C138.47 358.53 135.96 355.05 133.62 351.47C131.28 347.88 129.1 344.19 127.1 340.4L127.1 340.4C126.19 338.58 125.32 336.73 124.49 334.87C123.66 333.01 122.87 331.13 122.12 329.24C121.37 327.35 120.66 325.44 119.99 323.51C119.32 321.59 118.69 319.65 118.1 317.7C115.87 310.01 114.33 302.15 113.5 294.19C112.66 286.23 112.54 278.21 113.13 270.23C113.72 262.25 115.01 254.34 117 246.59C118.99 238.83 121.67 231.28 125 224C128.16 216.53 131.94 209.34 136.31 202.51C140.67 195.67 145.6 189.22 151.05 183.21C156.5 177.2 162.44 171.66 168.81 166.65C175.19 161.64 181.98 157.17 189.1 153.3C196 149.65 203.19 146.57 210.59 144.1C218 141.62 225.59 139.76 233.3 138.53C241.01 137.3 248.8 136.7 256.61 136.75C264.42 136.79 272.21 137.48 279.9 138.8L217.3 283.8C207.9 306.3 213.3 313.8 215.2 318.7C216.43 321.34 217.95 323.84 219.71 326.15C221.48 328.46 223.49 330.58 225.71 332.47C227.93 334.35 230.35 335.99 232.92 337.36C235.49 338.73 238.2 339.81 241 340.6C242.48 341.17 244 341.65 245.53 342.05C247.07 342.45 248.63 342.77 250.2 342.99C251.77 343.22 253.35 343.36 254.94 343.41C256.53 343.46 258.12 343.43 259.7 343.3C263.52 343.21 267.3 342.56 270.93 341.38C274.56 340.19 277.99 338.49 281.13 336.31C284.27 334.14 287.07 331.52 289.46 328.54C291.84 325.55 293.77 322.24 295.2 318.7L380.2 121.8C383.15 115.93 384.84 109.51 385.17 102.94C385.49 96.38 384.43 89.82 382.07 83.69C379.71 77.56 376.09 71.99 371.44 67.34C366.8 62.69 361.23 59.07 355.1 56.7C325.38 44.72 293.62 38.6 261.58 38.69C229.54 38.77 197.81 45.06 168.16 57.19C138.5 69.33 111.47 87.09 88.56 109.49C65.65 131.9 47.3 158.52 34.5 187.9C30 198.29 26.23 208.99 23.23 219.91C20.23 230.84 17.99 241.96 16.55 253.19C15.11 264.43 14.45 275.75 14.59 287.08C14.74 298.4 15.67 309.7 17.4 320.9L17.4 320.9C17.4 320.9 17.4 320.9 17.4 321.5C18.6 329.5 20.3 337.5 22.3 345.4C22.31 345.56 22.32 345.72 22.33 345.87C22.33 346.03 22.34 346.19 22.34 346.35C22.34 346.51 22.33 346.67 22.33 346.83C22.32 346.98 22.31 347.14 22.3 347.3L22.3 348.1C24.2 355.2 26.5 362.3 29.1 369.3L29.1 370.3C29.7 371.7 30.1 373.2 30.6 374.6C54.3 434 108.3 484.6 169.5 510.6C171.9 511.7 167 510 169.5 510.6C196.34 520.95 224.79 526.53 253.56 527.08C282.32 527.64 310.96 523.15 338.19 513.83C365.41 504.51 390.79 490.51 413.18 472.44C435.57 454.38 454.63 432.53 469.5 407.9L510 493C510.61 494.37 511.27 495.71 512 497.02C512.73 498.33 513.51 499.6 514.35 500.84C515.18 502.08 516.08 503.28 517.02 504.45C517.96 505.61 518.96 506.73 520 507.8C522.11 510.12 524.43 512.23 526.94 514.11C529.45 515.99 532.13 517.62 534.95 518.99C537.77 520.36 540.72 521.45 543.75 522.26C546.77 523.07 549.87 523.58 553 523.8L560.7 523.8C562.22 523.67 563.73 523.47 565.23 523.21C566.73 522.95 568.22 522.62 569.69 522.24C571.17 521.85 572.62 521.41 574.06 520.9C575.5 520.39 576.91 519.83 578.3 519.2C579.78 518.46 581.22 517.66 582.63 516.79C584.04 515.93 585.42 515.01 586.75 514.03C588.08 513.05 589.37 512.01 590.61 510.92C591.86 509.83 593.05 508.69 594.2 507.5C595.18 506.42 596.12 505.31 597.03 504.17C597.94 503.03 598.81 501.86 599.65 500.66C600.48 499.47 601.28 498.25 602.04 497C602.8 495.76 603.52 494.49 604.2 493.2C608.8 485.2 661.2 369 661.2 369L693.7 437.8C693.7 437.8 711.9 479.8 719.2 493.2C719.98 494.56 720.79 495.89 721.63 497.21C722.47 498.53 723.34 499.83 724.24 501.1C725.14 502.38 726.07 503.64 727.03 504.87C727.99 506.1 728.98 507.31 730 508.5C732.14 510.95 734.54 513.15 737.15 515.08C739.77 517.01 742.59 518.64 745.56 519.96C748.53 521.28 751.64 522.27 754.82 522.91C758.01 523.56 761.25 523.86 764.5 523.8L770.2 523.8C772.62 523.69 775.03 523.38 777.4 522.9C779.78 522.41 782.11 521.74 784.38 520.89C786.65 520.05 788.85 519.02 790.97 517.84C793.08 516.65 795.1 515.3 797 513.8C798.71 512.45 800.34 511.01 801.9 509.48C803.45 507.96 804.93 506.36 806.31 504.68C807.7 503 808.99 501.25 810.19 499.43C811.39 497.61 812.5 495.73 813.5 493.8L986.6 115.9C987.36 114.35 988.02 112.75 988.6 111.13C989.18 109.5 989.67 107.84 990.06 106.16C990.46 104.48 990.76 102.78 990.97 101.07C991.17 99.35 991.28 97.63 991.3 95.9C991.37 94.2 991.34 92.51 991.23 90.81C991.12 89.12 990.91 87.43 990.62 85.76C990.32 84.09 989.94 82.44 989.47 80.81C989 79.18 988.44 77.57 987.8 76L987.8 76Z" />
</svg>